<svg xmlns="http://www.w3.org/2000/svg" width="250" height="250" fill="none" viewBox="0 0 250 250">
<!-- SVG created with Arrow, by QuiverAI (https://quiver.ai) -->
  <path d="m13.05 105.3h14.51v4.88h-8.1v9.69h5.87v4.59h-5.87v11.08h8.25v4.72h-14.71c0.29-1.41 0.36-2.6 0.36-5.1v-25.37c0-1.71-0.07-3.15-0.31-4.49z" fill="#000"/>
  <path d="m49.86 125.8v2.35c0 7.06-1.93 12.64-9.43 12.64-7.01 0-10.28-3.7-10.28-13.68v-8.61c0-9.16 3.27-13.56 10.41-13.56 7.21 0 9.17 5.08 9.17 10.68v3.08h-6.52v-2.86c0-3.2-0.4-5.78-3-5.78-2.5 0-3.16 2.03-3.16 8.75v8.94c0 6.23 0.64 8.04 3.16 8.04 2.42 0 3-2.65 3-6.45v-3.54h6.65z" fill="#000"/>
  <path d="m82.92 128.8v1.84c0 2.9 0.77 4.74 3.07 4.74 1.82 0 2.54-1.81 2.54-4 0-3.22-0.9-4.4-4.9-7.65-4.35-3.52-6.47-5.63-6.47-10.53 0-4.78 2.2-8.49 8.85-8.49 7.38 0 8.64 4.72 8.64 8.61v1.49l-6.24 0.85v-1.97c0-2.71-0.52-4.3-2.4-4.3-1.7 0-2.32 1.44-2.32 3.58 0 2.45 0.62 3.81 4.12 6.61 5.48 4.33 7.33 6.71 7.33 11.97 0 5.22-2.27 9.22-9.23 9.22-6.99 0-9-4.14-9-9.03v-1.67l6.01-1.27z" fill="#000"/>
  <path d="m98.74 108.3h7.34c8.24 0 8.94 5.54 8.94 10.34v10.46c0 5.75-1.09 11.16-9.45 11.16h-6.83v-31.96zm2.97 29.69h3.6c5.68 0 6.86-3.13 6.86-8.53v-11.08c0-4.9-1.18-7.89-6.76-7.89h-3.7v27.5z" fill="#000"/>
  <path d="m122.8 108.3v31.96h-2.91v-31.96h2.91z" fill="#000"/>
  <path d="m143.8 140.2h-2.29c-0.08-0.6-0.18-2.42-0.2-3.45-1.05 2.89-3.27 3.88-6.11 3.88-5.77 0-7.7-3.7-7.7-9.92v-12.44c0-6.56 2.82-10.46 8.59-10.46 6.78 0 7.58 4.93 7.58 8.66v0.65h-2.91v-0.69c-0.05-2.75-0.4-6.33-4.75-6.33-3.73 0-6.17 2.26-6.17 8.43v12.02c0 5.05 1.49 7.94 5.49 7.94 4.52 0 5.54-3.59 5.54-9.6v-2.5h-5.64v-2.26h8.57v16.07z" fill="#000"/>
  <path d="m151.7 108.3v31.96h-2.91v-31.96h2.91z" fill="#000"/>
  <path d="m161.6 110.6h-6.83v-2.3h16.04v2.3h-6.57v29.66h-2.64v-29.66z" fill="#000"/>
  <path d="m176.2 130.2-2.37 10.01h-2.57l7.85-31.96h3.12l6.54 31.96h-2.54l-2.24-10.01h-7.79zm7.31-2.28c-2.09-9.53-3.33-15.3-3.74-17.85h-0.1c-0.46 3.09-1.9 9.95-3.29 17.85h7.13z" fill="#000"/>
  <path d="m192.9 108.3h2.71v29.69h9.56l-0.41 2.27h-11.86v-31.96z" fill="#000"/>
  <path d="m219.3 124h-8.37v13.9h9.1l-0.44 2.37h-11.23v-31.96h11.38v2.3h-8.81v11.19h8.37v2.2z" fill="#000"/>
  <path d="m226.1 131.4v1.3c0 3.81 1.77 5.75 5.09 5.75 3.43 0 4.92-1.89 4.92-6.1 0-4.1-1.39-5.89-5.74-9.2-4.5-3.39-6.57-5.38-6.57-9.62 0-3.58 1.69-6.49 7.26-6.48 5.59 0.01 7.05 2.95 7.05 7.24v1.36h-2.71v-1.3c0-3.05-0.93-5.23-4.39-5.23-3.3 0-4.39 2.19-4.39 4.88 0 3.4 1.16 4.75 5.15 7.8 5.19 3.91 7.04 6.03 7.04 10.9 0 4.38-1.75 7.92-7.64 7.92-5.97 0-7.74-3.37-7.74-7.54v-1.68h2.67z" fill="#000"/>
  <path d="m62.79 140.3v5.01h2.4v-5.01h-2.4z" fill="#B21C40" stroke="#B21C40" stroke-miterlimit="10" stroke-width="1.24"/>
  <path d="m61.48 104.6h3.24c5.79 0 8.73 4.92 8.73 11.26v13.03c0 6.35-3.43 11.26-9.22 11.26h-2.31c-5.8 0-9.2-4.91-9.2-11.26v-13.03c0-6.34 2.96-11.26 8.76-11.26z" fill="#B21C40" stroke="#B21C40" stroke-miterlimit="10" stroke-width="1.24"/>
  <path d="m61.51 105.2h2.7c5.8 0 8.2 4.47 8.2 10.82v12.23c0 6.34-3.43 10.82-8.49 10.82h-1.51c-5.8 0-8.63-4.48-8.63-10.82v-12.23c0-6.35 1.94-10.82 7.73-10.82z" stroke="#B21C40" stroke-miterlimit="10" stroke-width="1.24"/>
  <path d="m53.41 117.7h9.43v3.18h-9.43v-3.18z" fill="#fff"/>
  <path d="m63.78 117.7h8.66v3.18h-8.66v-3.18z" fill="#fff"/>
  <path d="m53.41 124.2h9.43v3.18h-9.43v-3.18z" fill="#fff"/>
  <path d="m63.78 124.2h8.66v3.18h-8.66v-3.18z" fill="#fff"/>
</svg>